<svg height="24" viewBox="0 0 24 24" width="24" xmlns="http://www.w3.org/2000/svg"><path d="m3 17c-.55228475 0-1-.4477153-1-1s.44771525-1 1-1h10.5c1 0 2 2 1.5 2zm14 0c-.5522847 0-1-.4477153-1-1s.4477153-1 1-1h4c.5522847 0 1 .4477153 1 1s-.4477153 1-1 1zm-4.3666225-13.49896444c.2755705-.47862237.8869646-.64322847 1.3655869-.36765802.4786224.27557046.6432285.88696454.3676581 1.3655869l-6.90708899 11.99652286c-.27557045.4786224-.88696453.6432285-1.3655869.3676581-.47862237-.2755705-.64322846-.8869646-.36765801-1.3655869zm-8.6333775 14.99896444c.5-1 3.5-2 2.5-.2791615-.17778905.3059463-.72224823 1.2319882-1.63337754 2.7781259-.27557046.4786224-.88696454.6432285-1.3655869.3676581-.47862237-.2755705-.64322847-.8869646-.36765802-1.3655869zm5.13337754-14.00103556c-.27557045-.47862236-.11096435-1.09001644.36765802-1.3655869.47862236-.27557045 1.09001644-.11096435 1.36558694.36765802l1.7438359 3.02876772c.2755705.47862236.1109644 1.09001644-.367658 1.3655869-.4786224.27557045-1.0900164.11096435-1.3655869-.36765801zm3.86662246 7.00103556c-.8981338-1.5 0-4.5.7163439-3.00410182l6.6502786 11.50513742c.2755704.4786223.1109643 1.0900164-.3676581 1.3655869-.4786223.2755704-1.0900164.1109643-1.3655869-.3676581z" fill="#1d81f3"/></svg>